<?xml version="1.0" standalone="no"?><!DOCTYPE svg PUBLIC "-//W3C//DTD SVG 1.1//EN" "http://www.w3.org/Graphics/SVG/1.1/DTD/svg11.dtd"><svg t="1565705175365" class="icon" viewBox="0 0 1024 1024" version="1.1" xmlns="http://www.w3.org/2000/svg" p-id="3401" xmlns:xlink="http://www.w3.org/1999/xlink" width="200" height="200"><defs><style type="text/css"></style></defs><path d="M511.5 244.5c-120 0-217.3 96.9-217.3 216.4 0 88.2 53 164 128.9 197.7v62.7h176.8v-62.7c76-33.7 128.9-109.6 128.9-197.7 0-119.5-97.3-216.4-217.3-216.4z" fill="#F7D04A" p-id="3402"></path><path d="M345.8 460.9c0-110.8 83.7-202.1 191.5-214.8-8.5-1-17.1-1.5-25.8-1.5-120 0-217.3 96.9-217.3 216.4 0 88.2 53 164 128.9 197.7v62.7h51.6v-62.7c-76-33.9-128.9-109.7-128.9-197.8z" fill="#F3B41B" p-id="3403"></path><path d="M561.2 944.9h-99.4c-45.8 0-82.9-36.9-82.9-82.5V713.9h265.2v148.5c0 45.6-37.1 82.5-82.9 82.5z" fill="#62C9CC" p-id="3404"></path><path d="M394.1 876.2h37.5c-0.8-4.5-1.2-9.1-1.2-13.8V713.9h-51.6v148.5c0 45.6 37.1 82.5 82.9 82.5h51.6c-16.9 0-32.7-5.1-45.8-13.8h-5.8c-33.3 0.1-61.2-23.6-67.6-54.9z" fill="#50A9A9" p-id="3405"></path><path d="M511.5 230.7c-48 0-94.1 14.5-133.2 42-6.2 4.4-7.7 13-3.3 19.2 4.4 6.2 13 7.7 19.3 3.3 34.4-24.2 75-37 117.3-37 112.2 0 203.5 90.9 203.5 202.6 0 79.9-47.4 152.6-120.7 185.1-5 2.2-8.2 7.1-8.2 12.6v41.6h-16.5V513.8h24.7c17.3 0 32.5-10.4 38.7-26.5 6.2-16.1 1.9-33.9-11-45.4l-10.9-9.8c-12.3-11.1-29.4-13.7-44.6-7-15.2 6.7-24.6 21.2-24.6 37.7v23.5h-61v-23.5c0-16.5-9.4-31-24.6-37.7-15.2-6.7-32.2-4-44.6 7l-10.9 9.8c-12.9 11.5-17.2 29.4-11 45.4 6.2 16.1 21.4 26.5 38.7 26.5h24.7v186.4h-16.5v-41.6c0-5.4-3.2-10.4-8.2-12.6C355.4 613.4 308 540.8 308 460.9c0-46.8 15.5-90.7 45-127.1 4.8-5.9 3.9-14.6-2.1-19.3-5.9-4.8-14.6-3.8-19.4 2.1-32.9 40.7-51.1 91.9-51.1 144.3 0 87.8 50.3 167.8 128.9 206.4v32.9h-30.4c-7.6 0-13.8 6.2-13.8 13.8v148.5c0 53.1 43.4 96.3 96.7 96.3h99.4c53.3 0 96.7-43.2 96.7-96.3V824c0-7.6-6.2-13.8-13.8-13.8s-13.8 6.2-13.8 13.8v24.8H392.7V801h199.8c7.6 0 13.8-6.2 13.8-13.8s-6.2-13.8-13.8-13.8H392.7v-45.8h237.6v22.9c0 7.6 6.2 13.8 13.8 13.8s13.8-6.2 13.8-13.8v-36.7c0-7.6-6.2-13.8-13.8-13.8h-30.4v-32.9c78.6-38.6 128.9-118.7 128.9-206.4 0-126.7-103.7-230-231.1-230z" fill="" p-id="3406"></path><path d="M522.5 339.8a51.6 51.3 0 1 0 103.2 0 51.6 51.3 0 1 0-103.2 0Z" fill="#FEE7BE" p-id="3407"></path><path d="M481 513.8h61v186.4h-61zM428.7 486.3c-12.5 0-18.5-15.6-9.2-24l10.9-9.8c8.8-7.9 23.1-1.5 23.1 10.2v23.5h-24.8z" fill="#F7D04A" p-id="3408"></path><path d="M431.6 876.2c3.9 22.9 17.2 42.6 35.9 55h93.7c33.4 0 61.3-23.7 67.7-55H431.6z" fill="#62C9CC" p-id="3409"></path><path d="M431.6 876.2h-37.5c6.4 31.3 34.3 55 67.7 55h5.8c-18.8-12.4-32.1-32.1-36-55z" fill="#50A9A9" p-id="3410"></path><path d="M569.6 462.7c0-8.3 6.3-11.7 8.2-12.6 1.9-0.9 8.7-3.2 14.9 2.3l10.9 9.8c6.5 5.9 4.5 13.1 3.7 15.1-0.8 2.1-4.1 8.8-12.9 8.8h-24.7v-23.4z" fill="#F7D04A" p-id="3411"></path><path d="M511.5 170.2c7.6 0 13.8-6.2 13.8-13.8v-77c0-7.6-6.2-13.8-13.8-13.8-7.6 0-13.8 6.2-13.8 13.8v77c0 7.7 6.2 13.8 13.8 13.8zM344.8 204.6c4.1 7 13.6 9 20.2 4.2 5.6-4.1 7.2-12 3.8-17.9l-38.7-66.7c-3.8-6.6-12.3-8.8-18.9-5-6.6 3.8-8.9 12.2-5.1 18.8l38.7 66.6zM250.5 298.6l-67-38.5c-6.6-3.8-15.1-1.5-18.9 5-3.8 6.6-1.6 15 5.1 18.8l67 38.5c7 4.1 16.3 1 19.6-6.4 2.7-6.3 0.2-14-5.8-17.4zM215.9 464.5c0-7.6-6.2-13.8-13.8-13.8h-77.3c-7.6 0-13.8 6.2-13.8 13.8 0 7.6 6.2 13.8 13.8 13.8h77.3c7.6 0 13.8-6.2 13.8-13.8zM236.7 606.6l-67 38.5c-6 3.5-8.5 11.1-5.8 17.4 3.3 7.4 12.5 10.5 19.6 6.4l67-38.5c6.6-3.8 8.9-12.2 5.1-18.8-3.9-6.5-12.3-8.8-18.9-5zM853.3 645.1l-67-38.5c-6.6-3.8-15.1-1.5-18.9 5-3.8 6.6-1.6 15 5.1 18.8l67 38.5c7 4.1 16.3 1 19.6-6.4 2.8-6.3 0.2-13.9-5.8-17.4zM898.2 450.8h-77.3c-7.6 0-13.8 6.2-13.8 13.8 0 7.6 6.2 13.8 13.8 13.8h77.3c7.6 0 13.8-6.2 13.8-13.8 0.1-7.7-6.1-13.8-13.8-13.8zM779.5 324.3c2.3 0 4.7-0.6 6.9-1.8l67-38.5c6.6-3.8 8.9-12.2 5.1-18.8-3.8-6.6-12.3-8.8-18.9-5l-67 38.5c-6.6 3.8-8.9 12.2-5.1 18.8 2.5 4.3 7.2 6.8 12 6.8zM659.3 209.7c6.5 3.8 15.1 1.5 18.9-5l38.7-66.7c3.8-6.6 1.6-15-5.1-18.8-6.6-3.8-15.1-1.5-18.9 5l-38.7 66.7c-3.8 6.5-1.5 15 5.1 18.8z" fill="" p-id="3412"></path></svg>